<?xml version="1.0" standalone="no"?>
<!DOCTYPE svg PUBLIC "-//W3C//DTD SVG 20010904//EN"
 "http://www.w3.org/TR/2001/REC-SVG-20010904/DTD/svg10.dtd">
<svg version="1.0" xmlns="http://www.w3.org/2000/svg"
 width="1093.000000pt" height="980.000000pt" viewBox="0 0 1093.000000 980.000000"
 preserveAspectRatio="xMidYMid meet">

<g transform="translate(0.000000,980.000000) scale(0.100000,-0.100000)"
fill="#000000" stroke="none">
<path d="M3760 4900 l0 -1140 1700 0 1700 0 0 1140 0 1140 -1700 0 -1700 0 0
-1140z m3318 181 c1 -476 -1 -868 -6 -873 -4 -4 -161 145 -347 332 -187 187
-343 340 -346 340 -3 0 -140 -135 -305 -300 -164 -165 -306 -300 -314 -300 -8
0 -212 197 -452 437 l-438 438 -503 -503 c-276 -276 -505 -502 -510 -502 -4 0
-7 405 -7 900 l0 900 1613 -2 1612 -3 3 -864z"/>
<path d="M5862 5530 c-112 -23 -191 -121 -192 -238 0 -134 106 -243 238 -243
99 -1 178 47 225 136 28 52 29 154 3 207 -51 104 -162 160 -274 138z"/>
</g>
</svg>
